<svg width="24" height="24" viewBox="0 0 24 24" fill="none" xmlns="http://www.w3.org/2000/svg">
<path d="M17.21 9.00014L12.83 2.44014C12.64 2.16014 12.32 2.02014 12 2.02014C11.68 2.02014 11.36 2.16014 11.17 2.45014L6.79 9.00014H2C1.45 9.00014 1 9.45014 1 10.0001C1 10.0901 1.01 10.1801 1.04 10.2701L3.58 19.5401C3.81 20.3801 4.58 21.0001 5.5 21.0001H18.5C19.42 21.0001 20.19 20.3801 20.43 19.5401L22.97 10.2701L23 10.0001C23 9.45014 22.55 9.00014 22 9.00014H17.21ZM9 9.00014L12 4.60014L15 9.00014H9ZM12 17.0001C10.9 17.0001 10 16.1001 10 15.0001C10 13.9001 10.9 13.0001 12 13.0001C13.1 13.0001 14 13.9001 14 15.0001C14 16.1001 13.1 17.0001 12 17.0001Z" fill="white"/>
</svg>
