<svg width="18" height="18" viewBox="0 0 18 18" fill="none" xmlns="http://www.w3.org/2000/svg">
<path d="M17.0807 3.74744L11.8288 8.99992L17.0807 14.2522C17.8619 15.0336 17.8619 16.2996 17.0807 17.0811C16.6904 17.4714 16.1786 17.6667 15.6671 17.6667C15.1548 17.6667 14.643 17.4717 14.253 17.0811L8.99994 11.8282L3.7473 17.081C3.35703 17.4713 2.84524 17.6667 2.3333 17.6667C1.82151 17.6667 1.31007 17.4716 0.919446 17.081C0.138252 16.2999 0.138252 15.0339 0.919446 14.2521L6.17119 8.99987L0.919147 3.74744C0.137953 2.96624 0.137953 1.70002 0.919147 0.918825C1.70019 0.138224 2.96566 0.138224 3.747 0.918825L8.99989 6.1713L14.2524 0.918825C15.0339 0.138224 16.2995 0.138224 17.0804 0.918825C17.8619 1.70002 17.8619 2.96624 17.0807 3.74744Z" fill="#FEFEFF"/>
</svg>
