<?xml version="1.0" standalone="no"?>
<!DOCTYPE svg PUBLIC "-//W3C//DTD SVG 20010904//EN"
 "http://www.w3.org/TR/2001/REC-SVG-20010904/DTD/svg10.dtd">
<svg version="1.0" xmlns="http://www.w3.org/2000/svg"
 width="100.000000pt" height="100.000000pt" viewBox="0 0 100.000000 100.000000"
 preserveAspectRatio="xMidYMid meet">

<g transform="translate(0.000000,100.000000) scale(0.100000,-0.100000)"
fill="#ffffff" stroke="none">
<path d="M332 968 c-7 -7 -12 -24 -12 -40 0 -26 -2 -27 -57 -30 l-58 -3 -3
-287 c-2 -283 -2 -288 18 -288 20 0 20 6 20 270 l0 270 40 0 c37 0 40 -2 40
-28 0 -37 17 -52 60 -52 43 0 60 15 60 52 l0 28 120 0 120 0 0 -28 c0 -37 17
-52 60 -52 43 0 60 15 60 52 0 26 3 28 40 28 l40 0 0 -365 0 -366 -25 -24
c-29 -30 -74 -32 -106 -6 -21 16 -25 31 -29 98 l-5 78 -315 0 -315 0 -3 -70
c-3 -81 9 -110 57 -142 34 -23 37 -23 361 -23 324 0 327 0 361 23 60 40 59 36
56 452 l-2 380 -57 3 c-56 3 -58 4 -58 30 0 38 -17 52 -60 52 -43 0 -60 -15
-60 -52 l0 -28 -120 0 -120 0 0 28 c0 15 -5 33 -12 40 -16 16 -80 16 -96 0z
m68 -88 c0 -53 -2 -60 -20 -60 -18 0 -20 7 -20 60 0 53 2 60 20 60 18 0 20 -7
20 -60z m360 0 c0 -53 -2 -60 -20 -60 -18 0 -20 7 -20 60 0 53 2 60 20 60 18
0 20 -7 20 -60z m-80 -692 c0 -29 7 -65 14 -80 l15 -28 -270 0 -270 0 -24 25
c-21 20 -25 34 -25 80 l0 55 280 0 280 0 0 -52z"/>
<path d="M340 660 c0 -19 7 -20 220 -20 213 0 220 1 220 20 0 19 -7 20 -220
20 -213 0 -220 -1 -220 -20z"/>
<path d="M340 540 c0 -19 7 -20 220 -20 213 0 220 1 220 20 0 19 -7 20 -220
20 -213 0 -220 -1 -220 -20z"/>
<path d="M340 420 c0 -19 7 -20 120 -20 113 0 120 1 120 20 0 19 -7 20 -120
20 -113 0 -120 -1 -120 -20z"/>
</g>
</svg>
