<svg width="20" height="20" viewBox="0 0 20 20" fill="none" xmlns="http://www.w3.org/2000/svg">
<path opacity="0.8" d="M9.19291 0.659058C13.8989 0.659058 17.7271 4.48725 17.7271 9.19322C17.7271 11.1479 17.066 12.9512 15.9566 14.3914L19.2358 17.6707C19.6681 18.103 19.6681 18.8039 19.2358 19.2362C18.8036 19.6685 18.1027 19.6685 17.6704 19.2362L14.3911 15.9569C12.9509 17.0663 11.1476 17.7274 9.19294 17.7274C4.48694 17.7274 0.658745 13.8992 0.658745 9.19322C0.658745 4.48725 4.48694 0.659058 9.19291 0.659058ZM9.19291 15.5134C12.6776 15.5134 15.5131 12.6779 15.5131 9.19322C15.5131 5.70849 12.6777 2.87301 9.19291 2.87301C5.70815 2.87301 2.8727 5.70849 2.8727 9.19322C2.8727 12.6779 5.70818 15.5134 9.19291 15.5134Z" fill="black" stroke="black" stroke-width="0.5"/>
</svg>
