<?xml version="1.0" encoding="utf-8"?>
<!-- Generator: Adobe Illustrator 24.1.2, SVG Export Plug-In . SVG Version: 6.00 Build 0)  -->
<svg version="1.1" id="Layer_1" xmlns="http://www.w3.org/2000/svg" xmlns:xlink="http://www.w3.org/1999/xlink" x="0px" y="0px"
	 viewBox="0 0 980 980.44" style="enable-background:new 0 0 980 980.44;" xml:space="preserve">
<style type="text/css">
	.st0{fill:#FFFFFF;}
</style>
<g>
	<g>
		<path class="st0" d="M718.38,489.5c1.24,9.83-4.55,15.68-11.93,20.25c-20.24,12.53-40.4,25.21-60.97,37.19
			c-81.4,47.43-162.94,94.64-244.45,141.88c-5.18,3-10.49,5.8-15.86,8.46c-13.93,6.89-28.68-0.12-31.08-15.52
			c-1.58-10.15-1.89-20.57-1.94-30.88c-0.29-58.33-0.42-116.66-0.43-174.99c-0.01-49,0.16-97.99,0.41-146.99
			c0.05-9.49,0.16-19.06,1.41-28.44c2.48-18.47,17.72-26.3,34.12-17.46c20.36,10.98,40.54,22.32,60.48,34.04
			c82.24,48.33,164.36,96.85,246.5,145.34c4.87,2.88,9.69,5.88,14.3,9.15C715.05,475.89,719.46,481.35,718.38,489.5z"/>
	</g>
</g>
</svg>
