<svg width="25" height="25" viewBox="0 0 25 25" fill="none" xmlns="http://www.w3.org/2000/svg">
<path d="M23.7728 14.6104C24.0489 14.6104 24.2728 14.3866 24.2728 14.1104V10.8896C24.2728 10.6135 24.0489 10.3896 23.7728 10.3896H14.6104V1.22729C14.6104 0.951153 14.3866 0.727295 14.1104 0.727295H10.8896C10.6135 0.727295 10.3896 0.951153 10.3896 1.22729V10.3896H1.22729C0.951153 10.3896 0.727295 10.6135 0.727295 10.8896V14.1104C0.727295 14.3866 0.951153 14.6104 1.22729 14.6104H10.3896V23.7728C10.3896 24.0489 10.6135 24.2728 10.8896 24.2728H14.1104C14.3866 24.2728 14.6104 24.0489 14.6104 23.7728V14.6104H23.7728Z" fill="#999999" stroke="#999999" stroke-linecap="round" stroke-linejoin="round"/>
</svg>
