<?xml version="1.0" standalone="no"?>
<!DOCTYPE svg PUBLIC "-//W3C//DTD SVG 20010904//EN"
 "http://www.w3.org/TR/2001/REC-SVG-20010904/DTD/svg10.dtd">
<svg version="1.0" xmlns="http://www.w3.org/2000/svg"
 width="512.000000pt" height="512.000000pt" viewBox="0 0 512.000000 512.000000"
 preserveAspectRatio="xMidYMid meet">

<g transform="translate(0.000000,512.000000) scale(0.100000,-0.100000)"
fill="#ffffff" stroke="none">
<path d="M2368 5105 c-47 -8 -121 -25 -162 -40 -86 -28 -1913 -963 -2018
-1032 -190 -124 -240 -322 -126 -493 55 -84 121 -128 397 -269 195 -100 240
-127 228 -136 -8 -6 -124 -67 -256 -135 -273 -140 -334 -185 -392 -292 -31
-58 -34 -70 -34 -148 0 -78 3 -90 34 -148 58 -107 119 -152 392 -292 132 -68
248 -129 256 -135 12 -9 -33 -36 -228 -136 -276 -141 -342 -185 -397 -269
-122 -182 -56 -389 163 -517 164 -95 1911 -985 1979 -1008 212 -71 501 -71
713 0 94 32 1944 981 2031 1042 183 129 223 331 98 500 -56 77 -111 113 -394
258 -128 65 -229 122 -225 126 5 4 120 65 256 135 288 149 345 192 399 302 29
58 33 76 33 147 0 72 -3 86 -34 143 -58 107 -118 151 -398 296 -136 70 -251
131 -256 135 -4 4 102 63 235 132 133 68 268 143 300 167 213 160 206 429 -14
585 -87 61 -1937 1010 -2032 1042 -155 52 -368 67 -548 40z m414 -333 c77 -22
1953 -983 1995 -1021 l26 -25 -34 -29 c-19 -16 -457 -246 -974 -512 -708 -364
-960 -490 -1020 -506 -115 -33 -316 -33 -430 0 -60 17 -315 143 -1020 506
-517 266 -956 497 -975 513 l-34 29 28 24 c37 32 1904 992 1972 1014 90 28
144 34 274 30 83 -2 147 -10 192 -23z m-1303 -2026 c633 -325 670 -343 762
-370 224 -64 487 -57 700 20 38 14 306 147 596 296 l527 271 136 -70 c74 -39
232 -121 352 -182 119 -62 224 -122 235 -133 18 -20 17 -21 -13 -46 -50 -40
-1902 -990 -1979 -1015 -60 -19 -92 -22 -230 -22 -123 0 -175 4 -225 18 -74
20 -1943 977 -1994 1021 l-31 26 30 26 c28 23 689 372 709 373 5 1 196 -95
425 -213z m156 -1246 c264 -136 513 -259 553 -274 106 -38 226 -56 372 -56
146 0 266 18 372 56 40 15 309 148 598 297 289 149 529 270 535 270 23 -1 683
-348 708 -373 l29 -27 -26 -24 c-14 -13 -454 -244 -978 -514 -695 -357 -971
-495 -1023 -508 -108 -28 -254 -33 -371 -12 -95 17 -114 25 -439 191 -834 425
-1596 821 -1621 843 l-27 23 26 25 c14 14 180 105 369 203 l343 177 50 -25
c28 -14 266 -136 530 -272z"/>
</g>
</svg>
