<svg width="20" height="27" viewBox="0 0 20 27" fill="none" xmlns="http://www.w3.org/2000/svg">
<path d="M10.0001 12.6562C13.2216 12.6562 15.8333 9.82308 15.8333 6.32816C15.8333 2.83317 14.9759 0 10.0001 0C5.02431 0 4.16667 2.83317 4.16667 6.32816C4.16667 9.82308 6.77844 12.6562 10.0001 12.6562Z" fill="#999999"/>
<path d="M19.9888 22.9559C19.8907 16.5027 19.0827 14.6639 12.8994 13.5C12.8994 13.5 12.029 14.6568 10.0002 14.6568C7.97149 14.6568 7.10094 13.5 7.10094 13.5C0.985062 14.6513 0.127885 16.4628 0.0151779 22.7462C0.0059359 23.2593 0.00165304 23.2863 0 23.2267C0.000375691 23.3383 0.000826353 23.5448 0.000826353 23.9047C0.000826353 23.9047 1.47293 27 10.0002 27C18.5274 27 19.9996 23.9047 19.9996 23.9047C19.9996 23.6734 19.9998 23.5126 20 23.4032C19.9983 23.44 19.995 23.3687 19.9888 22.9559Z" fill="#999999"/>
</svg>
